<svg xmlns="http://www.w3.org/2000/svg" xmlns:xlink="http://www.w3.org/1999/xlink" width="70" zoomAndPan="magnify" viewBox="0 0 52.5 52.499999" height="70" preserveAspectRatio="xMidYMid meet" version="1.0"><path fill="#5d98a6" d="M 37.394531 24.898438 C 37.484375 25.132812 37.644531 25.304688 37.871094 25.410156 C 38.101562 25.515625 38.332031 25.527344 38.570312 25.441406 C 38.808594 25.355469 38.980469 25.203125 39.089844 24.972656 C 39.199219 24.746094 39.210938 24.515625 39.128906 24.277344 C 38.738281 23.179688 38.21875 22.148438 37.570312 21.179688 C 36.917969 20.214844 36.160156 19.34375 35.289062 18.570312 C 34.421875 17.792969 33.46875 17.136719 32.4375 16.601562 C 31.402344 16.066406 30.320312 15.664062 29.183594 15.402344 C 28.9375 15.347656 28.707031 15.386719 28.496094 15.519531 C 28.28125 15.65625 28.148438 15.84375 28.089844 16.089844 C 28.03125 16.335938 28.070312 16.566406 28.199219 16.78125 C 28.332031 16.996094 28.519531 17.132812 28.761719 17.195312 C 29.746094 17.429688 30.683594 17.78125 31.578125 18.25 C 32.472656 18.71875 33.296875 19.289062 34.050781 19.960938 C 34.800781 20.632812 35.460938 21.386719 36.027344 22.222656 C 36.59375 23.058594 37.050781 23.949219 37.394531 24.898438 Z M 37.394531 24.898438 " fill-opacity="1" fill-rule="nonzero"/><path fill="#5d98a6" d="M 44.429688 45.730469 L 43.886719 45.730469 L 43.886719 27.84375 C 43.886719 26.914062 43.808594 25.992188 43.652344 25.078125 C 43.496094 24.160156 43.269531 23.265625 42.964844 22.386719 C 42.660156 21.507812 42.285156 20.664062 41.84375 19.847656 C 41.398438 19.03125 40.890625 18.257812 40.316406 17.527344 C 39.742188 16.796875 39.113281 16.117188 38.425781 15.492188 C 37.742188 14.863281 37.007812 14.300781 36.230469 13.792969 C 35.449219 13.289062 34.632812 12.851562 33.78125 12.484375 C 32.929688 12.113281 32.050781 11.816406 31.152344 11.59375 L 31.152344 10.402344 C 31.148438 9.800781 31.042969 9.214844 30.835938 8.652344 C 30.628906 8.085938 30.332031 7.574219 29.945312 7.113281 C 29.5625 6.652344 29.109375 6.269531 28.589844 5.964844 C 28.070312 5.660156 27.515625 5.453125 26.921875 5.34375 L 26.921875 2.058594 L 27.828125 2.058594 C 28.082031 2.058594 28.300781 1.96875 28.480469 1.785156 C 28.660156 1.605469 28.75 1.390625 28.75 1.136719 C 28.75 0.882812 28.660156 0.664062 28.480469 0.484375 C 28.300781 0.304688 28.082031 0.214844 27.828125 0.214844 L 24.175781 0.214844 C 23.921875 0.21875 23.710938 0.308594 23.53125 0.488281 C 23.355469 0.667969 23.265625 0.882812 23.265625 1.136719 C 23.265625 1.386719 23.355469 1.605469 23.53125 1.78125 C 23.710938 1.960938 23.921875 2.054688 24.175781 2.058594 L 25.082031 2.058594 L 25.082031 5.339844 C 24.488281 5.449219 23.933594 5.652344 23.410156 5.957031 C 22.890625 6.261719 22.4375 6.644531 22.050781 7.105469 C 21.667969 7.566406 21.371094 8.082031 21.164062 8.648438 C 20.957031 9.214844 20.855469 9.796875 20.855469 10.402344 L 20.855469 11.59375 C 19.9375 11.824219 19.042969 12.125 18.175781 12.507812 C 17.308594 12.886719 16.480469 13.335938 15.691406 13.851562 C 14.898438 14.371094 14.15625 14.953125 13.464844 15.597656 C 12.773438 16.242188 12.136719 16.941406 11.5625 17.695312 C 10.988281 18.445312 10.480469 19.238281 10.042969 20.078125 C 9.601562 20.914062 9.234375 21.785156 8.941406 22.683594 C 8.648438 23.582031 8.433594 24.5 8.292969 25.4375 C 8.15625 26.371094 8.097656 27.3125 8.117188 28.257812 C 8.117188 28.511719 8.207031 28.730469 8.386719 28.910156 C 8.566406 29.089844 8.785156 29.179688 9.039062 29.179688 C 9.804688 29.15625 10.027344 28.503906 9.957031 27.84375 C 9.960938 26.867188 10.0625 25.898438 10.253906 24.9375 C 10.449219 23.980469 10.730469 23.050781 11.109375 22.144531 C 11.484375 21.242188 11.945312 20.386719 12.488281 19.574219 C 13.03125 18.761719 13.648438 18.007812 14.339844 17.316406 C 15.035156 16.625 15.785156 16.007812 16.597656 15.460938 C 17.410156 14.917969 18.269531 14.457031 19.171875 14.082031 C 20.074219 13.707031 21.003906 13.421875 21.964844 13.230469 C 22.921875 13.035156 23.890625 12.9375 24.871094 12.933594 L 27.136719 12.933594 C 28.113281 12.9375 29.082031 13.035156 30.039062 13.230469 C 31 13.421875 31.929688 13.707031 32.832031 14.082031 C 33.734375 14.457031 34.59375 14.917969 35.40625 15.460938 C 36.21875 16.007812 36.972656 16.625 37.664062 17.316406 C 38.355469 18.007812 38.972656 18.761719 39.515625 19.574219 C 40.0625 20.386719 40.519531 21.242188 40.898438 22.148438 C 41.273438 23.050781 41.558594 23.980469 41.75 24.9375 C 41.945312 25.898438 42.042969 26.867188 42.046875 27.84375 L 42.046875 45.730469 L 38.261719 45.730469 C 38.007812 45.730469 37.789062 45.820312 37.609375 46 C 37.429688 46.179688 37.339844 46.394531 37.339844 46.652344 C 37.339844 46.90625 37.429688 47.121094 37.609375 47.300781 C 37.789062 47.480469 38.007812 47.570312 38.261719 47.570312 C 39.25 47.558594 43.5 47.578125 44.429688 47.570312 C 45.835938 47.570312 45.847656 49.945312 44.429688 49.949219 L 7.574219 49.949219 C 7.433594 49.945312 7.300781 49.917969 7.175781 49.863281 C 7.046875 49.808594 6.933594 49.734375 6.835938 49.636719 C 6.738281 49.539062 6.660156 49.425781 6.605469 49.296875 C 6.554688 49.167969 6.527344 49.035156 6.523438 48.898438 C 6.492188 48.738281 6.496094 48.578125 6.535156 48.421875 C 6.574219 48.265625 6.644531 48.121094 6.746094 47.996094 C 6.847656 47.867188 6.96875 47.765625 7.113281 47.691406 C 7.257812 47.617188 7.410156 47.578125 7.574219 47.570312 L 34.578125 47.570312 C 34.828125 47.566406 35.042969 47.476562 35.21875 47.296875 C 35.394531 47.117188 35.484375 46.902344 35.484375 46.652344 C 35.484375 46.398438 35.394531 46.183594 35.21875 46.003906 C 35.042969 45.824219 34.828125 45.734375 34.578125 45.730469 L 9.957031 45.730469 L 9.957031 31.941406 C 9.957031 31.691406 9.863281 31.476562 9.683594 31.300781 C 9.503906 31.125 9.289062 31.035156 9.039062 31.035156 C 8.785156 31.035156 8.570312 31.125 8.390625 31.300781 C 8.210938 31.476562 8.121094 31.691406 8.117188 31.941406 L 8.117188 45.730469 L 7.574219 45.730469 C 3.738281 45.792969 3.710938 51.71875 7.574219 51.789062 L 44.429688 51.789062 C 48.277344 51.714844 48.289062 45.804688 44.429688 45.730469 Z M 29.308594 11.25 C 27.105469 11.007812 24.898438 11.007812 22.695312 11.25 C 22.183594 5.71875 29.828125 5.734375 29.308594 11.25 Z M 29.308594 11.25 " fill-opacity="1" fill-rule="nonzero"/></svg>