<svg xmlns="http://www.w3.org/2000/svg" xmlns:xlink="http://www.w3.org/1999/xlink" width="70" zoomAndPan="magnify" viewBox="0 0 52.5 52.499999" height="70" preserveAspectRatio="xMidYMid meet" version="1.0"><defs><clipPath id="ca7683473e"><path d="M 0 0.851562 L 52 0.851562 L 52 51.335938 L 0 51.335938 Z M 0 0.851562 " clip-rule="nonzero"/></clipPath></defs><g clip-path="url(#ca7683473e)"><path fill="#5d98a6" d="M 51.984375 43.878906 C 51.984375 44.007812 51.984375 44.105469 51.984375 44.238281 L 51.984375 50.5 C 51.984375 50.859375 51.691406 51.152344 51.332031 51.152344 C 50.972656 51.152344 50.679688 50.859375 50.679688 50.5 L 50.679688 44.238281 C 50.679688 44.238281 50.679688 44.203125 50.679688 44.203125 C 50.679688 44.105469 50.679688 44.007812 50.679688 43.910156 C 50.679688 42.050781 49.277344 40.421875 47.351562 40.027344 L 44.808594 39.539062 C 44.15625 39.375 43.570312 39.246094 42.882812 39.117188 C 39.359375 38.367188 35.382812 37.515625 33 34.191406 C 32.511719 33.472656 32.085938 32.722656 31.792969 31.90625 L 28.269531 34.972656 C 27.941406 35.265625 27.519531 35.398438 27.09375 35.398438 C 26.703125 35.398438 26.3125 35.265625 25.984375 34.972656 C 25.660156 35.234375 25.269531 35.398438 24.875 35.398438 C 24.453125 35.398438 24.0625 35.265625 23.703125 34.972656 L 20.210938 31.9375 C 19.917969 32.722656 19.527344 33.472656 19.039062 34.191406 C 16.65625 37.515625 12.675781 38.367188 9.152344 39.117188 C 8.5 39.246094 7.882812 39.375 7.261719 39.539062 L 4.683594 40.0625 C 2.726562 40.386719 1.324219 42.019531 1.324219 43.910156 C 1.324219 44.007812 1.324219 44.105469 1.324219 44.203125 C 1.324219 44.203125 1.324219 44.238281 1.324219 44.238281 L 1.324219 50.5 C 1.324219 50.859375 1.03125 51.152344 0.671875 51.152344 C 0.3125 51.152344 0.0195312 50.859375 0.0195312 50.5 L 0.0195312 44.238281 C 0.0195312 44.105469 0.0195312 44.007812 0.0195312 43.878906 C 0.0507812 41.398438 1.878906 39.214844 4.421875 38.722656 L 6.96875 38.234375 C 7.585938 38.105469 8.238281 37.941406 8.859375 37.8125 C 12.316406 37.09375 15.875 36.34375 17.929688 33.40625 C 18.484375 32.65625 18.875 31.808594 19.136719 30.894531 C 19.070312 30.667969 19.101562 30.4375 19.265625 30.242188 C 19.496094 29.980469 19.917969 29.949219 20.179688 30.175781 L 24.550781 33.960938 C 24.746094 34.125 25.007812 34.125 25.171875 33.960938 C 25.367188 33.796875 25.367188 33.539062 25.234375 33.339844 L 20.929688 27.601562 C 20.113281 26.523438 19.136719 25.609375 17.960938 24.890625 L 16.882812 24.207031 C 16.820312 24.175781 16.753906 24.109375 16.6875 24.042969 L 7.816406 11.550781 C 7.621094 11.257812 7.683594 10.863281 7.980469 10.636719 C 8.273438 10.441406 8.664062 10.507812 8.890625 10.800781 L 17.667969 23.164062 L 18.644531 23.785156 C 19.949219 24.597656 21.058594 25.609375 21.972656 26.816406 L 22.363281 27.339844 C 22.300781 27.046875 22.464844 26.753906 22.722656 26.621094 C 24.125 26 24.777344 24.890625 24.976562 24.566406 L 24.976562 10.832031 C 24.875 10.929688 24.8125 10.996094 24.714844 11.09375 C 24.125 11.714844 23.667969 12.429688 23.410156 13.179688 C 23.179688 13.769531 23.082031 14.746094 22.917969 16.738281 C 22.886719 17.195312 22.855469 17.617188 22.820312 17.976562 C 22.691406 19.511719 22.625 20.324219 22.136719 21.402344 C 21.84375 22.054688 21.417969 22.640625 20.929688 23.164062 C 20.800781 23.292969 20.636719 23.390625 20.441406 23.390625 C 20.277344 23.390625 20.113281 23.328125 20.015625 23.230469 C 19.753906 23 19.722656 22.578125 19.984375 22.316406 C 20.375 21.859375 20.703125 21.371094 20.960938 20.847656 C 21.355469 20 21.417969 19.3125 21.550781 17.878906 C 21.582031 17.519531 21.613281 17.097656 21.648438 16.605469 C 21.84375 14.617188 21.941406 13.507812 22.234375 12.726562 C 22.59375 11.8125 23.117188 10.964844 23.832031 10.210938 C 24.324219 9.722656 24.875 9.105469 25.039062 8.84375 L 25.039062 7.277344 C 25.039062 7.210938 25.039062 7.179688 25.074219 7.113281 C 24.910156 7.277344 24.746094 7.40625 24.550781 7.539062 C 21.941406 9.363281 20.601562 12.105469 20.570312 15.660156 C 20.570312 20.195312 17.570312 21.238281 17.4375 21.273438 C 17.375 21.304688 17.308594 21.304688 17.242188 21.304688 C 16.984375 21.304688 16.722656 21.140625 16.625 20.847656 C 16.492188 20.519531 16.6875 20.128906 17.046875 20.03125 C 17.144531 20 19.296875 19.183594 19.296875 15.660156 C 19.296875 11.714844 20.863281 8.550781 23.832031 6.460938 C 25.855469 5.027344 24.941406 2.675781 24.910156 2.546875 C 24.875 2.480469 24.84375 2.417969 24.777344 2.351562 C 24.777344 2.351562 24.679688 2.285156 24.519531 2.253906 C 24.222656 2.21875 21.191406 2.480469 18.875 4.472656 C 14.765625 7.929688 15.121094 14.878906 15.253906 16.246094 C 15.285156 16.605469 15.023438 16.933594 14.667969 16.964844 C 14.632812 16.964844 14.632812 16.964844 14.601562 16.964844 C 14.273438 16.964844 13.980469 16.703125 13.949219 16.378906 C 13.785156 14.289062 13.558594 7.246094 17.929688 3.460938 C 20.636719 1.144531 24.125 0.816406 24.679688 0.949219 C 25.007812 1.011719 25.269531 1.175781 25.398438 1.273438 C 25.53125 1.175781 25.789062 1.011719 26.117188 0.949219 C 26.671875 0.851562 30.160156 1.144531 32.871094 3.460938 C 37.273438 7.246094 37.042969 14.289062 36.882812 16.34375 C 36.847656 16.703125 36.523438 16.964844 36.164062 16.933594 C 35.804688 16.898438 35.542969 16.574219 35.578125 16.214844 C 35.707031 14.84375 36.066406 7.863281 32.054688 4.40625 C 29.738281 2.449219 26.703125 2.1875 26.378906 2.21875 C 26.246094 2.253906 26.148438 2.316406 26.148438 2.351562 C 26.148438 2.351562 26.148438 2.351562 26.117188 2.382812 C 26.441406 3.425781 26.574219 5.222656 25.429688 6.65625 C 25.496094 6.625 25.53125 6.625 25.59375 6.625 C 25.757812 6.625 29.703125 6.460938 31.792969 11.222656 C 31.921875 11.550781 31.792969 11.941406 31.464844 12.070312 C 31.140625 12.203125 30.75 12.070312 30.617188 11.746094 C 29.347656 8.84375 27.324219 8.15625 26.3125 7.996094 L 26.3125 12.429688 C 26.410156 12.886719 27.289062 16.3125 30.226562 17.652344 C 33.976562 19.347656 34.175781 21.371094 34.175781 21.597656 C 34.175781 21.957031 33.914062 22.25 33.554688 22.28125 C 33.554688 22.28125 33.523438 22.28125 33.523438 22.28125 C 33.164062 22.28125 32.871094 22.023438 32.871094 21.664062 C 32.871094 21.664062 32.671875 20.195312 29.671875 18.859375 C 28.074219 18.140625 27.03125 16.964844 26.3125 15.824219 L 26.3125 24.664062 C 26.507812 25.023438 27.191406 26.097656 28.5625 26.71875 C 28.890625 26.882812 29.050781 27.242188 28.890625 27.566406 C 28.792969 27.796875 28.53125 27.957031 28.300781 27.957031 C 28.203125 27.957031 28.105469 27.925781 28.042969 27.894531 C 26.898438 27.371094 26.148438 26.621094 25.691406 26 C 25.234375 26.621094 24.484375 27.371094 23.34375 27.894531 C 23.246094 27.925781 23.179688 27.957031 23.082031 27.957031 C 22.984375 27.957031 22.886719 27.925781 22.789062 27.894531 L 26.050781 32.265625 L 30.0625 26.882812 C 30.976562 25.675781 32.085938 24.632812 33.390625 23.847656 L 34.335938 23.261719 L 41.808594 10.929688 C 42.003906 10.636719 42.394531 10.539062 42.6875 10.703125 C 42.980469 10.898438 43.078125 11.289062 42.917969 11.582031 L 35.347656 24.042969 C 35.285156 24.140625 35.21875 24.207031 35.121094 24.273438 L 34.042969 24.957031 C 32.902344 25.675781 31.890625 26.589844 31.074219 27.664062 L 26.738281 33.375 C 26.605469 33.570312 26.605469 33.832031 26.800781 33.992188 C 26.964844 34.15625 27.257812 34.15625 27.421875 33.992188 L 31.792969 30.210938 C 32.054688 29.980469 32.476562 30.015625 32.707031 30.273438 C 32.835938 30.4375 32.902344 30.667969 32.835938 30.863281 C 33.097656 31.777344 33.523438 32.65625 34.078125 33.4375 C 36.164062 36.34375 39.71875 37.09375 43.144531 37.84375 C 43.765625 37.972656 44.417969 38.105469 45.070312 38.265625 L 47.582031 38.757812 C 50.125 39.246094 51.953125 41.398438 51.984375 43.878906 Z M 14.632812 35.851562 C 14.667969 35.851562 14.699219 35.851562 14.730469 35.851562 C 15.058594 35.851562 15.320312 35.625 15.382812 35.300781 L 15.613281 33.636719 C 15.613281 33.570312 15.613281 33.472656 15.613281 33.40625 L 14.371094 28.1875 C 14.339844 28.058594 14.273438 27.925781 14.175781 27.859375 L 3.671875 18.726562 C 3.410156 18.5 2.988281 18.53125 2.757812 18.792969 C 2.53125 19.054688 2.5625 19.476562 2.824219 19.707031 L 13.164062 28.675781 L 14.308594 33.539062 L 14.078125 35.101562 C 14.015625 35.460938 14.273438 35.789062 14.632812 35.851562 Z M 47.875 19.671875 C 48.136719 19.410156 48.136719 19.019531 47.875 18.757812 C 47.613281 18.5 47.222656 18.5 46.960938 18.757812 L 37.761719 27.859375 C 37.664062 27.957031 37.632812 28.058594 37.597656 28.15625 L 36.328125 33.339844 C 36.292969 33.40625 36.292969 33.503906 36.328125 33.570312 L 36.554688 35.234375 C 36.589844 35.558594 36.882812 35.789062 37.207031 35.789062 C 37.242188 35.789062 37.273438 35.789062 37.304688 35.789062 C 37.664062 35.753906 37.925781 35.429688 37.859375 35.070312 L 37.664062 33.539062 L 38.871094 28.644531 Z M 24.421875 4.765625 C 24.777344 4.667969 24.976562 4.308594 24.910156 3.980469 C 24.8125 3.625 24.453125 3.425781 24.125 3.492188 C 22.855469 3.785156 20.539062 4.632812 18.742188 6.949219 C 16.625 9.65625 16.65625 12.660156 16.753906 13.800781 C 16.785156 14.128906 17.082031 14.386719 17.40625 14.386719 C 17.4375 14.386719 17.4375 14.386719 17.472656 14.386719 C 17.832031 14.355469 18.089844 14.03125 18.058594 13.671875 C 17.960938 12.660156 17.960938 10.082031 19.789062 7.734375 C 21.320312 5.742188 23.34375 5.027344 24.421875 4.765625 Z M 30.03125 39.472656 C 29.964844 38.398438 29.542969 37.453125 28.757812 36.765625 C 27.976562 36.082031 26.933594 35.722656 25.886719 35.753906 C 24.8125 35.820312 23.800781 36.277344 23.082031 37.09375 C 22.363281 37.875 22.007812 38.917969 22.070312 39.996094 C 22.136719 41.074219 22.59375 42.050781 23.410156 42.769531 C 23.667969 42.996094 24.09375 42.996094 24.324219 42.703125 C 24.550781 42.441406 24.550781 42.019531 24.257812 41.789062 C 23.734375 41.300781 23.410156 40.648438 23.34375 39.929688 C 23.3125 39.214844 23.539062 38.496094 24.027344 37.972656 C 24.519531 37.417969 25.171875 37.125 25.921875 37.09375 C 26.636719 37.058594 27.355469 37.289062 27.878906 37.777344 C 28.53125 38.367188 28.695312 39.082031 28.726562 39.574219 C 28.757812 40.453125 28.464844 41.234375 28.105469 41.59375 C 27.648438 42.085938 27.03125 42.410156 26.410156 42.671875 C 26.28125 42.738281 26.117188 42.800781 25.984375 42.867188 C 24.910156 43.324219 23.667969 43.847656 22.953125 45.019531 C 22.070312 46.457031 22.039062 48.25 22.820312 49.523438 C 23.410156 50.46875 24.289062 50.925781 24.941406 51.152344 C 25.007812 51.1875 25.074219 51.1875 25.171875 51.1875 C 25.429688 51.1875 25.691406 51.023438 25.789062 50.761719 C 25.921875 50.433594 25.726562 50.042969 25.398438 49.914062 C 24.941406 49.75 24.355469 49.457031 23.964844 48.835938 C 23.34375 47.824219 23.570312 46.554688 24.09375 45.707031 C 24.617188 44.890625 25.53125 44.5 26.507812 44.074219 C 26.671875 44.007812 26.800781 43.945312 26.964844 43.878906 C 27.714844 43.550781 28.496094 43.160156 29.117188 42.476562 C 29.703125 41.726562 30.097656 40.582031 30.03125 39.472656 Z M 25.953125 41.53125 C 25.53125 41.53125 25.136719 41.398438 24.777344 41.074219 C 24.0625 40.421875 23.996094 39.3125 24.648438 38.59375 C 25.300781 37.875 26.410156 37.8125 27.128906 38.464844 C 27.84375 39.117188 27.910156 40.226562 27.257812 40.941406 C 26.933594 41.332031 26.441406 41.53125 25.953125 41.53125 Z M 26.246094 39.441406 C 26.148438 39.375 26.050781 39.34375 25.953125 39.34375 C 25.824219 39.34375 25.691406 39.410156 25.628906 39.507812 C 25.464844 39.703125 25.464844 39.964844 25.660156 40.125 C 25.855469 40.289062 26.117188 40.289062 26.28125 40.09375 C 26.441406 39.898438 26.441406 39.605469 26.246094 39.441406 Z M 26.183594 48.902344 C 25.757812 48.902344 25.332031 48.738281 24.976562 48.445312 C 24.222656 47.792969 24.160156 46.652344 24.84375 45.902344 C 25.496094 45.152344 26.636719 45.085938 27.390625 45.769531 C 27.746094 46.097656 27.976562 46.519531 27.976562 47.011719 C 28.007812 47.5 27.84375 47.957031 27.519531 48.316406 C 27.160156 48.707031 26.671875 48.902344 26.183594 48.902344 Z M 26.671875 47.074219 C 26.671875 46.945312 26.605469 46.8125 26.507812 46.75 C 26.410156 46.652344 26.3125 46.617188 26.183594 46.617188 C 26.050781 46.617188 25.921875 46.683594 25.824219 46.78125 C 25.628906 46.976562 25.660156 47.304688 25.855469 47.464844 C 26.050781 47.664062 26.378906 47.628906 26.539062 47.433594 C 26.636719 47.335938 26.671875 47.207031 26.671875 47.074219 Z M 26.671875 47.074219 " fill-opacity="1" fill-rule="nonzero"/></g></svg>