<svg xmlns="http://www.w3.org/2000/svg" xmlns:xlink="http://www.w3.org/1999/xlink" width="70" zoomAndPan="magnify" viewBox="0 0 52.5 52.499999" height="70" preserveAspectRatio="xMidYMid meet" version="1.0"><defs><clipPath id="f44bf32bba"><path d="M 13 2.601562 L 22 2.601562 L 22 12 L 13 12 Z M 13 2.601562 " clip-rule="nonzero"/></clipPath><clipPath id="3550790e8c"><path d="M 0 9.855469 L 50.519531 9.855469 L 50.519531 49.382812 L 0 49.382812 Z M 0 9.855469 " clip-rule="nonzero"/></clipPath></defs><g clip-path="url(#f44bf32bba)"><path fill="#5d98a6" d="M 17.570312 3.523438 C 19.503906 3.523438 21.074219 5.105469 21.074219 7.046875 C 21.074219 8.988281 19.503906 10.570312 17.570312 10.570312 C 15.648438 10.570312 14.085938 8.988281 14.085938 7.046875 C 14.085938 5.105469 15.648438 3.523438 17.570312 3.523438 Z M 17.570312 11.472656 C 20 11.472656 21.976562 9.488281 21.976562 7.046875 C 21.976562 4.605469 20 2.621094 17.570312 2.621094 C 15.152344 2.621094 13.183594 4.605469 13.183594 7.046875 C 13.183594 9.488281 15.152344 11.472656 17.570312 11.472656 " fill-opacity="1" fill-rule="nonzero"/></g><g clip-path="url(#3550790e8c)"><path fill="#5d98a6" d="M 49.964844 36.625 C 49.964844 36.851562 49.785156 37.039062 49.574219 37.039062 L 1.292969 37.039062 C 1.082031 37.039062 0.902344 36.851562 0.902344 36.625 L 0.902344 34.835938 C 0.902344 34.617188 1.078125 34.4375 1.292969 34.4375 L 49.574219 34.4375 C 49.789062 34.4375 49.964844 34.617188 49.964844 34.835938 Z M 46.402344 48.476562 L 45.445312 48.476562 L 45.445312 37.945312 L 46.402344 37.945312 Z M 27.929688 48.441406 C 27.515625 48.476562 27.125 48.347656 26.808594 48.078125 C 26.496094 47.808594 26.300781 47.4375 26.269531 47.03125 L 25.539062 37.945312 L 28.621094 37.945312 L 29.320312 46.761719 C 29.390625 47.621094 28.765625 48.375 27.929688 48.441406 Z M 21.253906 47.011719 C 21.230469 47.421875 21.050781 47.804688 20.742188 48.078125 C 20.433594 48.351562 20.039062 48.484375 19.632812 48.460938 C 19.230469 48.441406 18.863281 48.261719 18.589844 47.957031 C 18.3125 47.644531 18.175781 47.242188 18.199219 46.824219 L 18.714844 37.945312 L 21.796875 37.945312 Z M 5.421875 48.476562 L 4.464844 48.476562 L 4.464844 37.945312 L 5.421875 37.945312 Z M 5.351562 30.933594 L 19.914062 30.933594 C 20.054688 30.933594 20.1875 30.867188 20.273438 30.757812 C 20.496094 30.46875 20.746094 30.214844 21.015625 29.984375 C 21.050781 29.957031 21.085938 29.925781 21.121094 29.894531 C 22.011719 29.179688 23.121094 28.785156 24.296875 28.785156 L 35.28125 28.785156 C 37.96875 28.785156 40.183594 30.875 40.410156 33.535156 L 23.3125 33.535156 C 22.902344 33.535156 22.566406 33.195312 22.566406 32.777344 C 22.566406 32.355469 22.910156 32 23.3125 32 L 36.390625 32 C 36.640625 32 36.84375 31.796875 36.84375 31.546875 C 36.84375 31.296875 36.640625 31.097656 36.390625 31.097656 L 23.3125 31.097656 C 22.402344 31.097656 21.664062 31.847656 21.664062 32.777344 C 21.664062 33.050781 21.734375 33.308594 21.855469 33.535156 L 5.351562 33.535156 C 4.65625 33.535156 4.070312 32.9375 4.070312 32.234375 C 4.070312 31.515625 4.644531 30.933594 5.351562 30.933594 Z M 17.351562 26.039062 C 17.265625 25.957031 17.152344 25.910156 17.035156 25.910156 L 10.878906 25.910156 C 10.183594 25.910156 9.617188 25.328125 9.617188 24.609375 C 9.617188 23.890625 10.183594 23.308594 10.878906 23.308594 L 17.441406 23.308594 L 18.128906 23.375 C 18.140625 23.378906 18.15625 23.378906 18.171875 23.382812 C 18.222656 23.402344 18.265625 23.425781 18.316406 23.449219 C 18.355469 23.46875 18.394531 23.484375 18.429688 23.507812 C 18.507812 23.558594 18.578125 23.613281 18.648438 23.683594 L 22.996094 28.011719 C 22.402344 28.140625 21.835938 28.371094 21.3125 28.679688 C 21.261719 28.707031 21.210938 28.730469 21.160156 28.761719 C 21.066406 28.820312 20.976562 28.886719 20.886719 28.949219 C 20.789062 29.019531 20.6875 29.085938 20.59375 29.164062 C 20.578125 29.175781 20.558594 29.183594 20.542969 29.199219 Z M 13.777344 27.765625 C 13.5625 28.015625 13.265625 28.164062 12.941406 28.1875 C 12.617188 28.207031 12.300781 28.101562 12.050781 27.878906 C 11.738281 27.613281 11.585938 27.210938 11.628906 26.8125 L 14.609375 26.8125 Z M 15.585938 14.640625 C 15.597656 14.550781 15.738281 14.066406 17.335938 13.21875 C 20.394531 11.597656 24.929688 10.570312 25.492188 10.847656 L 31.984375 16.953125 C 32.160156 17.117188 32.289062 17.328125 32.355469 17.558594 L 33.554688 22.617188 C 33.710938 23.285156 33.300781 23.957031 32.632812 24.117188 C 32.320312 24.191406 31.996094 24.140625 31.714844 23.96875 C 31.433594 23.796875 31.234375 23.523438 31.160156 23.203125 L 30.066406 18.648438 C 30.046875 18.566406 30 18.488281 29.9375 18.425781 L 27.058594 15.714844 C 26.914062 15.582031 26.703125 15.554688 26.53125 15.648438 C 26.359375 15.742188 26.269531 15.9375 26.304688 16.128906 L 28.503906 27.878906 L 24.140625 27.878906 C 24.109375 27.84375 24.074219 27.808594 24.042969 27.777344 L 19.285156 23.042969 C 19.179688 22.933594 19.0625 22.84375 18.941406 22.765625 C 18.9375 22.761719 18.933594 22.757812 18.933594 22.757812 C 18.808594 22.675781 18.675781 22.609375 18.539062 22.554688 C 18.535156 22.554688 18.535156 22.554688 18.53125 22.554688 C 18.472656 22.53125 18.414062 22.511719 18.351562 22.492188 C 18.324219 22.488281 18.300781 22.480469 18.277344 22.480469 L 18.253906 22.476562 C 18.222656 22.46875 18.195312 22.460938 18.164062 22.453125 L 18.699219 18.160156 C 18.730469 17.914062 18.554688 17.6875 18.304688 17.65625 C 18.058594 17.628906 17.832031 17.800781 17.804688 18.050781 L 17.261719 22.40625 L 14.59375 22.40625 Z M 41.957031 29.6875 C 41.957031 27.574219 43.65625 25.855469 45.746094 25.855469 C 47.84375 25.855469 49.550781 27.574219 49.550781 29.6875 C 49.550781 31.808594 47.84375 33.535156 45.746094 33.535156 C 43.65625 33.535156 41.957031 31.808594 41.957031 29.6875 Z M 49.574219 33.535156 L 48.5 33.535156 C 49.683594 32.671875 50.457031 31.269531 50.457031 29.6875 C 50.457031 27.078125 48.34375 24.953125 45.746094 24.953125 C 43.160156 24.953125 41.054688 27.078125 41.054688 29.6875 C 41.054688 31.269531 41.828125 32.671875 43.003906 33.535156 L 41.308594 33.535156 C 41.078125 30.378906 38.46875 27.878906 35.28125 27.878906 L 29.421875 27.878906 L 27.445312 17.324219 L 29.21875 18.992188 L 30.28125 23.414062 C 30.414062 23.96875 30.753906 24.4375 31.242188 24.738281 C 31.726562 25.039062 32.300781 25.128906 32.847656 24.996094 C 33.996094 24.722656 34.707031 23.5625 34.433594 22.410156 L 33.230469 17.328125 C 33.109375 16.917969 32.898438 16.570312 32.601562 16.292969 L 26.109375 10.1875 C 25.121094 9.269531 19.929688 11.128906 19.710938 11.210938 C 17.511719 12.003906 14.855469 13.226562 14.691406 14.523438 L 13.683594 22.40625 L 10.878906 22.40625 C 9.683594 22.40625 8.710938 23.394531 8.710938 24.609375 C 8.710938 25.773438 9.605469 26.714844 10.726562 26.796875 C 10.679688 27.460938 10.941406 28.125 11.457031 28.5625 C 11.851562 28.90625 12.339844 29.09375 12.855469 29.09375 C 12.902344 29.09375 12.953125 29.089844 13.003906 29.085938 C 13.570312 29.046875 14.085938 28.789062 14.457031 28.359375 L 15.808594 26.8125 L 16.847656 26.8125 L 19.890625 29.824219 C 19.828125 29.894531 19.757812 29.957031 19.699219 30.03125 L 5.351562 30.03125 C 4.148438 30.03125 3.164062 31.019531 3.164062 32.234375 C 3.164062 32.722656 3.328125 33.167969 3.597656 33.535156 L 1.292969 33.535156 C 0.578125 33.535156 0 34.117188 0 34.835938 L 0 36.625 C 0 37.351562 0.578125 37.945312 1.292969 37.945312 L 3.558594 37.945312 L 3.558594 48.929688 C 3.558594 49.179688 3.761719 49.382812 4.011719 49.382812 L 5.871094 49.382812 C 6.121094 49.382812 6.324219 49.179688 6.324219 48.929688 L 6.324219 37.945312 L 17.808594 37.945312 L 17.300781 46.769531 C 17.257812 47.425781 17.476562 48.0625 17.917969 48.558594 C 18.351562 49.042969 18.945312 49.332031 19.582031 49.363281 C 19.632812 49.363281 19.6875 49.367188 19.742188 49.367188 C 20.332031 49.367188 20.894531 49.152344 21.34375 48.753906 C 21.835938 48.316406 22.121094 47.710938 22.15625 47.058594 L 22.703125 37.945312 L 24.632812 37.945312 L 25.367188 47.105469 C 25.421875 47.75 25.722656 48.339844 26.222656 48.765625 C 26.671875 49.148438 27.222656 49.351562 27.800781 49.351562 C 27.867188 49.351562 27.933594 49.347656 28.003906 49.34375 C 29.335938 49.234375 30.332031 48.042969 30.222656 46.6875 L 29.527344 37.945312 L 44.542969 37.945312 L 44.542969 48.929688 C 44.542969 49.179688 44.746094 49.382812 44.996094 49.382812 L 46.855469 49.382812 C 47.105469 49.382812 47.308594 49.179688 47.308594 48.929688 L 47.308594 37.945312 L 49.574219 37.945312 C 50.289062 37.945312 50.867188 37.351562 50.867188 36.625 L 50.867188 34.835938 C 50.867188 34.117188 50.289062 33.535156 49.574219 33.535156 " fill-opacity="1" fill-rule="nonzero"/></g></svg>