<svg xmlns="http://www.w3.org/2000/svg" xmlns:xlink="http://www.w3.org/1999/xlink" width="70" zoomAndPan="magnify" viewBox="0 0 52.5 52.499999" height="70" preserveAspectRatio="xMidYMid meet" version="1.0"><defs><clipPath id="6d0702d52e"><path d="M 0 0 L 52 0 L 52 52.003906 L 0 52.003906 Z M 0 0 " clip-rule="nonzero"/></clipPath></defs><g clip-path="url(#6d0702d52e)"><path fill="#5d98a6" d="M 36.144531 17.488281 C 34.761719 17.789062 33.726562 19.015625 33.726562 20.484375 L 33.726562 36.398438 L 30.289062 32.996094 C 29.507812 32.226562 28.40625 31.890625 27.332031 32.097656 C 26.660156 32.226562 26.089844 32.644531 25.773438 33.25 C 25.453125 33.855469 25.425781 34.5625 25.699219 35.1875 L 26.753906 37.609375 L 1.953125 37.609375 C 1.925781 37.609375 1.902344 37.621094 1.875 37.625 L 1.875 4.894531 C 1.875 3.179688 3.269531 1.785156 4.980469 1.785156 L 33.035156 1.785156 C 34.75 1.785156 36.144531 3.179688 36.144531 4.894531 Z M 17.132812 41.074219 C 17.132812 40.167969 17.867188 39.429688 18.777344 39.429688 C 19.683594 39.429688 20.421875 40.167969 20.421875 41.074219 C 20.421875 41.980469 19.683594 42.71875 18.777344 42.71875 C 17.867188 42.71875 17.132812 41.980469 17.132812 41.074219 Z M 27.546875 39.429688 L 29.617188 44.191406 C 29.726562 44.433594 29.859375 44.660156 30.011719 44.875 L 4.980469 44.875 C 3.269531 44.875 1.875 43.480469 1.875 41.769531 L 1.875 39.414062 C 1.902344 39.417969 1.925781 39.429688 1.953125 39.429688 L 15.746094 39.429688 C 15.476562 39.921875 15.3125 40.476562 15.3125 41.074219 C 15.3125 42.984375 16.863281 44.539062 18.777344 44.539062 C 20.6875 44.539062 22.242188 42.984375 22.242188 41.074219 C 22.242188 40.476562 22.074219 39.921875 21.808594 39.429688 Z M 49.191406 33.429688 L 39.851562 29.816406 L 39.851562 20.484375 C 39.851562 19.210938 39.070312 18.117188 37.960938 17.652344 L 37.960938 4.894531 C 37.960938 2.175781 35.75 -0.0351562 33.035156 -0.0351562 L 4.980469 -0.0351562 C 2.265625 -0.0351562 0.0546875 2.175781 0.0546875 4.894531 L 0.0546875 41.769531 C 0.0546875 44.484375 2.265625 46.695312 4.980469 46.695312 L 31.742188 46.695312 L 33.726562 48.675781 L 33.726562 52.183594 C 33.726562 52.683594 34.132812 53.09375 34.632812 53.09375 C 35.136719 53.09375 35.542969 52.683594 35.542969 52.183594 L 35.542969 48.300781 C 35.542969 48.058594 35.449219 47.828125 35.277344 47.65625 L 31.722656 44.101562 C 31.539062 43.917969 31.390625 43.699219 31.285156 43.460938 L 27.367188 34.460938 C 27.296875 34.300781 27.347656 34.167969 27.378906 34.101562 C 27.417969 34.035156 27.5 33.917969 27.671875 33.882812 C 28.15625 33.789062 28.65625 33.941406 29.007812 34.289062 L 33.992188 39.222656 L 33.996094 39.226562 C 34.007812 39.238281 34.023438 39.238281 34.035156 39.25 C 34.109375 39.320312 34.195312 39.378906 34.292969 39.417969 C 34.371094 39.453125 34.453125 39.460938 34.539062 39.46875 C 34.570312 39.472656 34.601562 39.488281 34.632812 39.488281 C 34.636719 39.488281 34.636719 39.488281 34.636719 39.488281 C 34.757812 39.488281 34.875 39.464844 34.988281 39.417969 C 35.097656 39.371094 35.195312 39.304688 35.28125 39.21875 C 35.296875 39.207031 35.300781 39.1875 35.3125 39.171875 C 35.378906 39.097656 35.4375 39.015625 35.476562 38.925781 C 35.511719 38.835938 35.523438 38.742188 35.53125 38.648438 C 35.53125 38.625 35.542969 38.605469 35.542969 38.578125 L 35.542969 20.484375 C 35.542969 19.796875 36.101562 19.238281 36.789062 19.238281 C 37.472656 19.238281 38.03125 19.796875 38.03125 20.484375 L 38.03125 30.441406 C 38.03125 30.816406 38.261719 31.15625 38.613281 31.289062 L 48.535156 35.125 C 49.492188 35.496094 50.113281 36.402344 50.113281 37.429688 L 50.113281 44.042969 C 50.113281 44.738281 49.832031 45.417969 49.339844 45.910156 L 47.191406 48.0625 C 47.019531 48.230469 46.921875 48.460938 46.921875 48.703125 L 46.921875 52.183594 C 46.921875 52.683594 47.332031 53.09375 47.832031 53.09375 C 48.335938 53.09375 48.742188 52.683594 48.742188 52.183594 L 48.742188 49.082031 L 50.628906 47.199219 C 51.457031 46.367188 51.933594 45.21875 51.933594 44.042969 L 51.933594 37.429688 C 51.933594 35.671875 50.832031 34.0625 49.191406 33.429688 " fill-opacity="1" fill-rule="nonzero"/></g><path fill="#5d98a6" d="M 18.574219 21.484375 C 17 21.484375 15.71875 20.203125 15.71875 18.628906 C 15.71875 17.054688 17 15.777344 18.574219 15.777344 C 20.148438 15.777344 21.425781 17.054688 21.425781 18.628906 C 21.425781 20.203125 20.148438 21.484375 18.574219 21.484375 Z M 32.566406 7.394531 L 27.042969 12.917969 C 26.691406 13.269531 26.6875 13.835938 27.027344 14.195312 C 27.039062 14.199219 27.804688 15.046875 27.699219 16 C 27.625 16.660156 27.140625 17.292969 26.253906 17.878906 C 25.210938 18.570312 24.265625 18.109375 23.71875 17.445312 C 23.140625 16.734375 22.882812 15.605469 23.683594 14.804688 C 23.863281 14.628906 23.953125 14.394531 23.953125 14.164062 C 23.953125 13.929688 23.863281 13.695312 23.683594 13.519531 C 23.328125 13.164062 22.753906 13.164062 22.398438 13.519531 C 21.59375 14.320312 20.46875 14.0625 19.761719 13.484375 C 19.097656 12.941406 18.636719 11.992188 19.324219 10.949219 C 19.90625 10.070312 20.535156 9.582031 21.195312 9.507812 C 22.15625 9.375 23.007812 10.167969 23.011719 10.175781 C 23.367188 10.519531 23.9375 10.515625 24.285156 10.164062 L 29.808594 4.640625 C 30.164062 4.285156 30.164062 3.707031 29.808594 3.351562 C 29.453125 2.996094 28.878906 2.996094 28.523438 3.351562 L 23.550781 8.324219 C 22.957031 7.964844 22.042969 7.582031 21.007812 7.695312 C 19.78125 7.832031 18.703125 8.585938 17.808594 9.945312 C 16.824219 11.433594 17.058594 12.929688 17.820312 14.03125 C 15.945312 14.339844 14.445312 15.753906 14.027344 17.589844 C 12.941406 16.90625 11.507812 16.734375 10.085938 17.675781 C 8.730469 18.574219 7.972656 19.648438 7.835938 20.875 C 7.71875 21.925781 8.105469 22.832031 8.464844 23.421875 L 3.492188 28.390625 C 3.140625 28.746094 3.140625 29.324219 3.492188 29.679688 C 3.847656 30.035156 4.425781 30.035156 4.78125 29.679688 L 10.304688 24.15625 C 10.652344 23.804688 10.660156 23.238281 10.316406 22.882812 C 10.308594 22.871094 9.539062 22.027344 9.644531 21.074219 C 9.71875 20.414062 10.203125 19.78125 11.089844 19.195312 C 12.136719 18.503906 13.082031 18.964844 13.625 19.628906 C 14.203125 20.339844 14.460938 21.46875 13.660156 22.269531 C 13.480469 22.445312 13.394531 22.679688 13.394531 22.914062 C 13.394531 23.144531 13.480469 23.378906 13.660156 23.554688 C 14.015625 23.910156 14.589844 23.910156 14.945312 23.554688 C 15.746094 22.753906 16.878906 23.011719 17.585938 23.589844 C 18.25 24.132812 18.710938 25.082031 18.019531 26.125 C 17.4375 27.003906 16.808594 27.492188 16.148438 27.570312 C 15.171875 27.679688 14.335938 26.902344 14.332031 26.898438 C 13.976562 26.554688 13.410156 26.5625 13.058594 26.910156 L 7.535156 32.433594 C 7.179688 32.789062 7.179688 33.367188 7.535156 33.722656 C 7.714844 33.898438 7.945312 33.988281 8.179688 33.988281 C 8.414062 33.988281 8.644531 33.898438 8.824219 33.722656 L 13.796875 28.75 C 14.386719 29.109375 15.296875 29.488281 16.339844 29.378906 C 17.566406 29.242188 18.640625 28.488281 19.539062 27.128906 C 20.484375 25.699219 20.308594 24.261719 19.617188 23.175781 C 21.457031 22.753906 22.871094 21.25 23.171875 19.367188 C 23.761719 19.777344 24.453125 20.050781 25.207031 20.050781 C 25.867188 20.050781 26.566406 19.855469 27.257812 19.398438 C 28.617188 18.5 29.375 17.425781 29.507812 16.199219 C 29.625 15.148438 29.238281 14.242188 28.878906 13.652344 L 33.851562 8.683594 C 34.207031 8.324219 34.207031 7.75 33.851562 7.394531 C 33.496094 7.039062 32.921875 7.039062 32.566406 7.394531 " fill-opacity="1" fill-rule="nonzero"/></svg>