<svg xmlns="http://www.w3.org/2000/svg" xmlns:xlink="http://www.w3.org/1999/xlink" width="70" zoomAndPan="magnify" viewBox="0 0 52.5 52.499999" height="70" preserveAspectRatio="xMidYMid meet" version="1.0"><defs><clipPath id="5b679a7c73"><path d="M 1.132812 15 L 50.863281 15 L 50.863281 51.984375 L 1.132812 51.984375 Z M 1.132812 15 " clip-rule="nonzero"/></clipPath></defs><path fill="#5d98a6" d="M 20.449219 28.699219 L 18.148438 34.949219 C 18.089844 35.101562 17.972656 35.214844 17.820312 35.273438 L 7.527344 39.078125 C 7.09375 39.242188 6.769531 39.472656 6.609375 39.726562 C 6.453125 39.980469 6.394531 40.257812 6.5625 40.734375 L 7.691406 43.976562 C 7.832031 44.378906 8.085938 44.527344 8.4375 44.546875 C 8.789062 44.570312 9.226562 44.40625 9.574219 44 L 11.066406 42.234375 C 11.128906 42.164062 11.210938 42.109375 11.300781 42.078125 L 20.378906 38.714844 C 20.945312 38.503906 21.390625 38.0625 21.59375 37.496094 L 23.699219 31.777344 Z M 19.824219 17 L 19.046875 17.351562 L 19.480469 18.898438 Z M 32.9375 15.707031 C 32.730469 15.714844 32.523438 15.761719 32.320312 15.855469 L 28.621094 17.667969 L 27.992188 21.15625 L 33.574219 18.429688 C 34.292969 18.078125 34.589844 17.234375 34.230469 16.519531 C 33.976562 16.003906 33.476562 15.707031 32.9375 15.707031 Z M 25.089844 10.488281 C 24.261719 10.476562 23.503906 10.960938 22.535156 11.402344 L 15.421875 14.625 C 14.769531 14.917969 14.4375 15.628906 14.636719 16.3125 L 17 24.765625 C 17.210938 25.535156 17.992188 25.972656 18.757812 25.757812 C 19.527344 25.546875 19.96875 24.765625 19.757812 23.996094 L 17.847656 17.191406 C 17.773438 16.925781 17.90625 16.648438 18.152344 16.53125 L 23.082031 14.300781 C 23.359375 14.175781 23.695312 14.300781 23.816406 14.578125 C 23.941406 14.859375 23.820312 15.1875 23.542969 15.316406 L 21.046875 16.445312 L 20.164062 21.328125 L 20.824219 23.695312 C 21.179688 24.960938 20.441406 26.03125 19.800781 26.492188 C 19.894531 26.625 19.992188 26.746094 20.089844 26.84375 L 20.558594 27.28125 C 23.148438 29.726562 25.738281 32.171875 28.324219 34.617188 C 28.417969 34.703125 28.480469 34.824219 28.492188 34.949219 L 29.785156 45.324219 C 29.847656 45.820312 29.976562 46.230469 30.152344 46.46875 C 30.332031 46.703125 30.535156 46.828125 31.035156 46.835938 C 31.929688 46.835938 33.320312 46.828125 34.46875 46.828125 C 34.886719 46.828125 35.136719 46.628906 35.273438 46.296875 C 35.417969 45.976562 35.40625 45.519531 35.125 45.089844 L 33.699219 42.949219 C 33.652344 42.878906 33.625 42.796875 33.613281 42.710938 L 32.464844 33.515625 C 32.40625 33.035156 32.183594 32.597656 31.835938 32.269531 L 26.09375 26.835938 C 25.960938 26.710938 25.890625 26.519531 25.925781 26.335938 L 28.09375 14.351562 C 28.417969 12.558594 27.242188 10.851562 25.449219 10.523438 C 25.324219 10.5 25.195312 10.488281 25.089844 10.488281 Z M 27.617188 1.074219 C 27.363281 1.074219 27.109375 1.089844 26.855469 1.136719 C 24.507812 1.546875 22.957031 3.757812 23.359375 6.089844 C 23.769531 8.425781 25.984375 9.96875 28.324219 9.566406 C 30.671875 9.15625 32.234375 6.949219 31.824219 4.617188 C 31.460938 2.539062 29.65625 1.078125 27.617188 1.074219 Z M 27.617188 -0.0273438 C 30.183594 -0.0234375 32.453125 1.820312 32.910156 4.429688 C 33.421875 7.351562 31.449219 10.148438 28.515625 10.65625 C 28.355469 10.683594 28.191406 10.707031 28.027344 10.71875 C 28.964844 11.707031 29.4375 13.113281 29.179688 14.550781 L 28.863281 16.308594 L 31.824219 14.859375 C 33.082031 14.25 34.613281 14.773438 35.230469 16.027344 C 35.84375 17.28125 35.320312 18.816406 34.0625 19.425781 L 27.742188 22.511719 L 27.066406 26.238281 L 32.597656 31.460938 C 33.128906 31.964844 33.476562 32.636719 33.566406 33.371094 L 34.691406 42.441406 L 36.039062 44.476562 C 36.519531 45.199219 36.589844 46.054688 36.292969 46.742188 C 36.007812 47.429688 35.308594 47.941406 34.46875 47.941406 C 33.320312 47.941406 31.921875 47.949219 31.023438 47.941406 C 30.257812 47.941406 29.628906 47.621094 29.261719 47.128906 C 28.890625 46.640625 28.753906 46.050781 28.683594 45.464844 L 27.414062 35.285156 L 24.578125 32.605469 L 22.632812 37.878906 C 22.316406 38.75 21.636719 39.4375 20.765625 39.761719 L 11.816406 43.0625 L 10.410156 44.71875 C 9.859375 45.367188 9.105469 45.691406 8.367188 45.652344 C 7.636719 45.609375 6.921875 45.128906 6.644531 44.339844 L 5.515625 41.097656 C 5.261719 40.378906 5.339844 39.660156 5.679688 39.132812 C 6.015625 38.601562 6.550781 38.253906 7.140625 38.035156 L 17.203125 34.316406 L 19.570312 27.875 L 19.328125 27.652344 C 19.09375 27.425781 18.890625 27.171875 18.734375 26.894531 C 17.734375 27.015625 16.335938 26.53125 15.925781 25.066406 L 13.5625 16.617188 C 13.222656 15.414062 13.816406 14.132812 14.957031 13.621094 L 22.074219 10.390625 C 22.695312 10.113281 23.371094 9.703125 24.152344 9.503906 C 23.191406 8.710938 22.507812 7.59375 22.277344 6.28125 C 21.761719 3.355469 23.730469 0.558594 26.660156 0.046875 C 26.984375 -0.0078125 27.304688 -0.0351562 27.617188 -0.0351562 Z M 27.617188 -0.0273438 " fill-opacity="1" fill-rule="nonzero"/><g clip-path="url(#5b679a7c73)"><path fill="#5d98a6" d="M 49.152344 49.703125 L 2.835938 49.703125 C 2.484375 49.703125 2.207031 49.96875 2.207031 50.3125 C 2.207031 50.65625 2.484375 50.921875 2.835938 50.921875 L 49.152344 50.921875 C 49.503906 50.921875 49.777344 50.65625 49.777344 50.3125 C 49.777344 49.96875 49.503906 49.703125 49.152344 49.703125 Z M 44.125 21.1875 L 43.375 21.746094 L 42.863281 22.132812 C 46.167969 29.257812 47.9375 40.542969 45.839844 48.589844 L 47.421875 48.589844 C 49.550781 39.945312 47.648438 28.554688 44.125 21.1875 Z M 46.195312 16.574219 C 46.023438 16.5625 45.851562 16.613281 45.699219 16.726562 C 45.191406 17.109375 43.09375 18.675781 41.789062 19.652344 C 40.488281 20.632812 38.386719 22.207031 37.878906 22.582031 C 37.539062 22.835938 37.472656 23.300781 37.730469 23.644531 C 37.984375 23.984375 38.457031 24.046875 38.800781 23.785156 L 46.621094 17.9375 C 46.96875 17.679688 47.03125 17.210938 46.777344 16.878906 C 46.632812 16.683594 46.414062 16.578125 46.195312 16.574219 Z M 46.148438 15.464844 C 46.722656 15.464844 47.289062 15.71875 47.660156 16.203125 C 48.28125 17.027344 48.105469 18.203125 47.28125 18.820312 L 45.03125 20.507812 C 48.710938 28.058594 50.710938 39.546875 48.570312 48.589844 L 49.152344 48.589844 C 50.101562 48.589844 50.890625 49.363281 50.890625 50.3125 C 50.890625 51.265625 50.101562 52.035156 49.152344 52.035156 L 2.835938 52.035156 C 1.890625 52.035156 1.105469 51.265625 1.105469 50.3125 C 1.105469 49.363281 1.890625 48.589844 2.835938 48.589844 L 44.671875 48.589844 C 46.753906 41.011719 45.09375 29.777344 41.953125 22.816406 L 39.472656 24.675781 C 38.648438 25.285156 37.464844 25.136719 36.84375 24.3125 C 36.21875 23.492188 36.394531 22.304688 37.222656 21.6875 C 37.714844 21.324219 39.824219 19.75 41.128906 18.769531 C 42.429688 17.796875 44.535156 16.214844 45.023438 15.84375 C 45.359375 15.59375 45.757812 15.472656 46.148438 15.464844 Z M 46.148438 15.464844 " fill-opacity="1" fill-rule="nonzero"/></g></svg>