<svg xmlns="http://www.w3.org/2000/svg" xmlns:xlink="http://www.w3.org/1999/xlink" width="70" zoomAndPan="magnify" viewBox="0 0 52.5 52.499999" height="70" preserveAspectRatio="xMidYMid meet" version="1.0"><defs><clipPath id="f0ae713c24"><path d="M 0 18 L 20 18 L 20 52.003906 L 0 52.003906 Z M 0 18 " clip-rule="nonzero"/></clipPath><clipPath id="3e573e937c"><path d="M 32 18 L 52 18 L 52 52.003906 L 32 52.003906 Z M 32 18 " clip-rule="nonzero"/></clipPath></defs><path fill="#5d98a6" d="M 6.527344 11.84375 C 7.417969 10.382812 8.917969 9.328125 10.621094 8.964844 C 10.984375 8.882812 11.671875 8.761719 12.445312 8.640625 C 13.820312 8.4375 15.566406 8.152344 17.023438 7.828125 C 21.078125 6.898438 21.441406 2.761719 21.078125 0.738281 C 20.996094 0.289062 20.589844 0.0078125 20.144531 0.0898438 C 19.699219 0.167969 19.414062 0.574219 19.496094 1.019531 C 19.539062 1.183594 20.226562 5.398438 16.660156 6.25 C 15.242188 6.574219 13.578125 6.855469 12.199219 7.058594 C 11.347656 7.179688 10.660156 7.304688 10.253906 7.382812 C 8.105469 7.871094 6.242188 9.167969 5.105469 10.992188 C 4.054688 12.695312 3.484375 14.84375 3.40625 17.355469 C 3.363281 19.625 3.363281 22.785156 3.40625 26.191406 C 3.40625 28.21875 3.445312 30.367188 3.445312 32.472656 L 5.066406 31.015625 C 5.066406 29.433594 5.066406 27.8125 5.027344 26.191406 C 4.984375 22.828125 4.984375 19.664062 5.027344 17.394531 C 5.105469 15.167969 5.59375 13.300781 6.527344 11.84375 Z M 6.527344 11.84375 " fill-opacity="1" fill-rule="nonzero"/><path fill="#5d98a6" d="M 26.875 19.261719 C 26.875 18.816406 26.507812 18.449219 26.0625 18.449219 C 25.617188 18.449219 25.253906 18.816406 25.253906 19.261719 L 25.253906 21.691406 C 25.253906 22.136719 25.617188 22.503906 26.0625 22.503906 C 26.507812 22.503906 26.875 22.136719 26.875 21.691406 Z M 26.875 19.261719 " fill-opacity="1" fill-rule="nonzero"/><path fill="#5d98a6" d="M 26.875 25.746094 C 26.875 25.300781 26.507812 24.933594 26.0625 24.933594 C 25.617188 24.933594 25.253906 25.300781 25.253906 25.746094 L 25.253906 28.179688 C 25.253906 28.625 25.617188 28.988281 26.0625 28.988281 C 26.507812 28.988281 26.875 28.625 26.875 28.179688 Z M 26.875 25.746094 " fill-opacity="1" fill-rule="nonzero"/><path fill="#5d98a6" d="M 26.875 32.191406 C 26.875 31.746094 26.507812 31.378906 26.0625 31.378906 C 25.617188 31.378906 25.253906 31.746094 25.253906 32.191406 L 25.253906 37.257812 C 25.253906 37.703125 25.617188 38.066406 26.0625 38.066406 C 26.507812 38.066406 26.875 37.703125 26.875 37.257812 Z M 26.875 32.191406 " fill-opacity="1" fill-rule="nonzero"/><g clip-path="url(#f0ae713c24)"><path fill="#5d98a6" d="M 18.808594 37.460938 C 18.523438 37.214844 18.160156 37.015625 17.792969 36.890625 C 16.660156 36.527344 15.402344 37.015625 14.753906 38.027344 C 14.792969 35.796875 14.632812 33.285156 14.105469 30.933594 C 13.621094 28.867188 13.214844 27.367188 12.890625 26.515625 C 12.808594 26.355469 12.726562 26.109375 12.566406 25.867188 L 12.726562 19.664062 C 12.726562 19.21875 12.402344 18.855469 11.917969 18.855469 C 11.472656 18.855469 11.105469 19.179688 11.105469 19.664062 L 10.902344 27.976562 L 4.457031 33.691406 C 3.972656 34.136719 3.6875 34.746094 3.648438 35.394531 L 3.285156 44.109375 C 3.285156 44.269531 3.203125 44.433594 3.121094 44.59375 L 0.285156 48.242188 C 0 48.605469 0.0820312 49.09375 0.40625 49.375 C 0.566406 49.5 0.730469 49.539062 0.890625 49.539062 C 1.136719 49.539062 1.378906 49.417969 1.539062 49.214844 L 4.378906 45.566406 C 4.703125 45.160156 4.863281 44.675781 4.90625 44.148438 L 5.308594 35.472656 C 5.308594 35.269531 5.429688 35.070312 5.59375 34.90625 L 12.039062 29.109375 C 12.160156 29.597656 12.320312 30.203125 12.484375 30.972656 L 10.253906 33.570312 C 9.769531 34.136719 9.566406 34.867188 9.6875 35.59375 L 10.457031 39.890625 C 10.621094 40.90625 11.429688 41.675781 12.445312 41.835938 L 13.660156 42.039062 C 13.984375 42.082031 14.347656 41.960938 14.511719 41.636719 L 16.050781 38.960938 C 16.292969 38.515625 16.820312 38.3125 17.265625 38.433594 C 17.429688 38.472656 17.589844 38.554688 17.714844 38.675781 C 18.039062 38.960938 18.117188 39.445312 17.914062 39.851562 L 15.484375 45.445312 C 15.402344 45.605469 15.28125 45.769531 15.117188 45.851562 L 11.875 47.632812 C 11.671875 47.753906 11.472656 47.917969 11.308594 48.121094 L 9.363281 50.796875 C 9.121094 51.160156 9.199219 51.648438 9.566406 51.929688 C 9.726562 52.050781 9.890625 52.09375 10.050781 52.09375 C 10.296875 52.09375 10.539062 51.972656 10.699219 51.769531 L 12.648438 49.09375 L 15.96875 47.308594 C 16.457031 47.066406 16.863281 46.621094 17.066406 46.132812 L 19.496094 40.539062 C 19.902344 39.445312 19.660156 38.191406 18.808594 37.460938 Z M 13.011719 40.296875 L 12.726562 40.257812 C 12.402344 40.214844 12.121094 39.933594 12.078125 39.609375 L 11.308594 35.3125 C 11.269531 35.070312 11.347656 34.824219 11.511719 34.621094 L 12.972656 32.921875 L 12.929688 33.246094 C 13.214844 35.71875 13.171875 38.269531 13.011719 40.296875 Z M 13.011719 40.296875 " fill-opacity="1" fill-rule="nonzero"/></g><path fill="#5d98a6" d="M 47.058594 31.054688 L 48.679688 32.515625 C 48.679688 30.40625 48.679688 28.257812 48.722656 26.273438 C 48.761719 22.910156 48.761719 19.746094 48.722656 17.4375 C 48.640625 14.964844 48.074219 12.816406 47.019531 11.113281 C 45.882812 9.289062 44.019531 7.992188 41.871094 7.503906 C 41.464844 7.425781 40.777344 7.304688 39.925781 7.179688 C 38.589844 6.980469 36.886719 6.695312 35.46875 6.371094 C 31.898438 5.519531 32.589844 1.34375 32.628906 1.183594 C 32.710938 0.738281 32.425781 0.332031 31.980469 0.25 C 31.535156 0.167969 31.128906 0.453125 31.046875 0.898438 C 30.683594 2.925781 31.046875 7.019531 35.101562 7.953125 C 36.5625 8.277344 38.304688 8.558594 39.683594 8.761719 C 40.492188 8.882812 41.183594 9.003906 41.507812 9.085938 C 43.207031 9.453125 44.707031 10.503906 45.601562 11.964844 C 46.492188 13.421875 47.019531 15.289062 47.058594 17.476562 C 47.140625 19.746094 47.101562 22.910156 47.058594 26.230469 C 47.101562 27.851562 47.058594 29.476562 47.058594 31.054688 Z M 47.058594 31.054688 " fill-opacity="1" fill-rule="nonzero"/><g clip-path="url(#3e573e937c)"><path fill="#5d98a6" d="M 48.964844 44.632812 C 48.84375 44.511719 48.800781 44.351562 48.800781 44.148438 L 48.4375 35.472656 C 48.398438 34.824219 48.113281 34.21875 47.628906 33.769531 L 41.222656 28.015625 L 41.019531 19.707031 C 41.019531 19.261719 40.65625 18.894531 40.210938 18.894531 C 39.761719 18.894531 39.398438 19.261719 39.398438 19.707031 L 39.5625 25.90625 C 39.195312 26.515625 38.710938 27.894531 38.019531 30.933594 C 37.492188 33.285156 37.332031 35.796875 37.371094 38.027344 C 36.722656 37.015625 35.46875 36.527344 34.332031 36.890625 C 33.96875 37.015625 33.601562 37.214844 33.320312 37.460938 C 32.46875 38.191406 32.183594 39.40625 32.671875 40.5 L 35.101562 46.09375 C 35.304688 46.578125 35.710938 47.027344 36.195312 47.269531 L 39.519531 49.050781 L 41.464844 51.726562 C 41.628906 51.929688 41.871094 52.050781 42.113281 52.050781 C 42.277344 52.050781 42.4375 52.011719 42.601562 51.890625 C 42.964844 51.648438 43.046875 51.121094 42.761719 50.753906 L 40.816406 48.078125 C 40.65625 47.878906 40.492188 47.714844 40.25 47.59375 L 36.925781 45.808594 C 36.765625 45.730469 36.640625 45.566406 36.5625 45.40625 L 34.128906 39.8125 C 33.96875 39.40625 34.046875 38.917969 34.332031 38.636719 C 34.453125 38.515625 34.617188 38.433594 34.777344 38.390625 C 35.222656 38.269531 35.75 38.472656 35.992188 38.917969 L 37.535156 41.59375 C 37.695312 41.878906 38.019531 42.039062 38.386719 42 L 39.601562 41.796875 C 40.613281 41.636719 41.386719 40.824219 41.585938 39.851562 L 42.359375 35.554688 C 42.480469 34.824219 42.277344 34.09375 41.789062 33.527344 L 39.5625 30.972656 C 39.722656 30.246094 39.886719 29.636719 40.007812 29.152344 L 46.453125 34.90625 C 46.613281 35.070312 46.695312 35.269531 46.734375 35.472656 L 47.101562 44.148438 C 47.140625 44.675781 47.304688 45.160156 47.628906 45.566406 L 50.464844 49.214844 C 50.625 49.417969 50.871094 49.539062 51.113281 49.539062 C 51.273438 49.539062 51.476562 49.5 51.597656 49.375 C 51.964844 49.09375 52.003906 48.605469 51.722656 48.242188 Z M 40.65625 34.664062 C 40.816406 34.867188 40.898438 35.109375 40.859375 35.351562 L 40.085938 39.648438 C 40.007812 39.972656 39.761719 40.257812 39.4375 40.296875 L 39.113281 40.335938 C 38.953125 38.3125 38.953125 35.757812 39.277344 33.285156 L 39.238281 32.960938 Z M 40.65625 34.664062 " fill-opacity="1" fill-rule="nonzero"/></g><path fill="#5d98a6" d="M 17.550781 35.191406 C 19.617188 35.191406 21.320312 36.890625 21.320312 38.960938 C 21.320312 39.40625 21.683594 39.769531 22.132812 39.769531 C 22.578125 39.769531 22.941406 39.40625 22.941406 38.960938 C 22.941406 35.960938 20.511719 33.570312 17.550781 33.570312 C 17.105469 33.570312 16.742188 33.933594 16.742188 34.378906 C 16.742188 34.824219 17.105469 35.191406 17.550781 35.191406 Z M 17.550781 35.191406 " fill-opacity="1" fill-rule="nonzero"/><path fill="#5d98a6" d="M 35.507812 34.378906 C 35.507812 33.933594 35.144531 33.570312 34.695312 33.570312 C 31.699219 33.570312 29.304688 36 29.304688 38.960938 C 29.304688 39.40625 29.671875 39.769531 30.117188 39.769531 C 30.5625 39.769531 30.925781 39.40625 30.925781 38.960938 C 30.925781 36.890625 32.628906 35.191406 34.695312 35.191406 C 35.144531 35.191406 35.507812 34.824219 35.507812 34.378906 Z M 35.507812 34.378906 " fill-opacity="1" fill-rule="nonzero"/><path fill="#5d98a6" d="M 26.875 40.742188 C 26.875 40.296875 26.507812 39.933594 26.0625 39.933594 C 25.617188 39.933594 25.253906 40.296875 25.253906 40.742188 L 25.253906 43.175781 C 25.253906 43.621094 25.617188 43.984375 26.0625 43.984375 C 26.507812 43.984375 26.875 43.621094 26.875 43.175781 Z M 26.875 40.742188 " fill-opacity="1" fill-rule="nonzero"/><path fill="#5d98a6" d="M 26.0625 46.417969 C 25.617188 46.417969 25.253906 46.78125 25.253906 47.230469 L 25.253906 49.660156 C 25.253906 50.105469 25.617188 50.472656 26.0625 50.472656 C 26.507812 50.472656 26.875 50.105469 26.875 49.660156 L 26.875 47.230469 C 26.875 46.78125 26.507812 46.417969 26.0625 46.417969 Z M 26.0625 46.417969 " fill-opacity="1" fill-rule="nonzero"/></svg>